<?xml version="1.0" encoding="utf-8"?>
<!-- Generator: Adobe Illustrator 27.5.0, SVG Export Plug-In . SVG Version: 6.00 Build 0)  -->
<svg version="1.1" id="BACKGROUND" xmlns="http://www.w3.org/2000/svg" xmlns:xlink="http://www.w3.org/1999/xlink" x="0px" y="0px"
	 viewBox="0 0 750 500" style="enable-background:new 0 0 750 500;" xml:space="preserve">
<rect style="fill:#C0D1D9;" width="750" height="500"/>
<g>
	<g>
		<rect y="212.736" style="fill:#C0D1D9;" width="750" height="287.264"/>
		<linearGradient id="SVGID_1_" gradientUnits="userSpaceOnUse" x1="375" y1="154.3397" x2="375" y2="42.9859">
			<stop  offset="0" style="stop-color:#D8A9A1"/>
			<stop  offset="1" style="stop-color:#92AAC6"/>
		</linearGradient>
		<path style="fill:url(#SVGID_1_);" d="M641.739,81.274c-1.98,0-140.02,3.362-142.001,3.362
			c-36.966,3.021-73.931-6.042-110.897-6.798c-1.98,0-3.301-2.266-4.621-2.266c-14.522-2.266-29.044-2.266-43.567-6.042
			c-6.601-2.266-13.862-2.266-20.463-1.511c-29.044,3.021-57.429,6.042-86.473,7.553c-3.961,0-8.581,0.755-12.542,1.511
			C189.914,81.808,30.79,99.804,0,103.398v80.493h750v-75.723C711.274,103.254,681.157,80.63,641.739,81.274z"/>
		
			<linearGradient id="SVGID_00000170971723963341764930000016807878437982802573_" gradientUnits="userSpaceOnUse" x1="211.2941" y1="109.378" x2="211.2941" y2="140.6445">
			<stop  offset="0" style="stop-color:#D8A9A1"/>
			<stop  offset="1" style="stop-color:#F4A57A"/>
		</linearGradient>
		<path style="fill:url(#SVGID_00000170971723963341764930000016807878437982802573_);" d="M280.956,102.568L0,134.278v36.975
			c11.305-0.624,22.832-0.478,34.36-2.905c4-1,7-3,10-4c11-5,22-5,33-9c5-2,12-1,17-3c5-1,11-3,15-3c52-3,103,2,156-5
			c13-2,25-6,37-8c3.558-0.431,6.526-15.018,10.056-15.395L422.588,97.05L280.956,102.568z"/>
		
			<linearGradient id="SVGID_00000152976434043189084930000017875727932628629929_" gradientUnits="userSpaceOnUse" x1="224.3044" y1="124.2926" x2="224.3044" y2="184.5244">
			<stop  offset="0" style="stop-color:#D8A9A1"/>
			<stop  offset="1" style="stop-color:#F4A57A"/>
		</linearGradient>
		<polygon style="fill:url(#SVGID_00000152976434043189084930000017875727932628629929_);" points="0,127.985 305.373,111.485 
			448.609,100.544 392.347,132.607 0,243.489 		"/>
		
			<linearGradient id="SVGID_00000159434796470840013730000008704764458316830637_" gradientUnits="userSpaceOnUse" x1="198.4184" y1="94.3266" x2="217.787" y2="199.9734">
			<stop  offset="0" style="stop-color:#D8A9A1"/>
			<stop  offset="0.7435" style="stop-color:#A06555"/>
		</linearGradient>
		<path style="fill:url(#SVGID_00000159434796470840013730000008704764458316830637_);" d="M422.588,102.532
			c-87.288,8.383-331.413,32.652-349.529,38.64c-4.941,1.198-9.882,3.593-16.47,4.79c-18.986,2.907-37.971,2.733-56.589,3.479
			v94.047l351.86-95.942C351.86,147.547,443.999,100.136,422.588,102.532z"/>
		
			<linearGradient id="SVGID_00000058549997906451878410000001939328905527935394_" gradientUnits="userSpaceOnUse" x1="603.1362" y1="103.6144" x2="603.1362" y2="123.7579">
			<stop  offset="0" style="stop-color:#D8A9A1"/>
			<stop  offset="1" style="stop-color:#F4A57A"/>
		</linearGradient>
		<path style="fill:url(#SVGID_00000058549997906451878410000001939328905527935394_);" d="M643.213,130.97
			c18.727,0,36.414,8,55.141,9c17.374,0.283,34.581,1.529,51.646,3.508v-2.833L533.899,101.19l-77.627-5.518l27.457,17.411
			c18.223,1.649,36.599,2.545,55.444,3.887C574.547,118.97,607.84,129.97,643.213,130.97z"/>
		
			<linearGradient id="SVGID_00000174600724975025622990000012347369639866495148_" gradientUnits="userSpaceOnUse" x1="622.0344" y1="130.6502" x2="622.0344" y2="187.6693">
			<stop  offset="0" style="stop-color:#D8A9A1"/>
			<stop  offset="0.7435" style="stop-color:#A06555"/>
		</linearGradient>
		<path style="fill:url(#SVGID_00000174600724975025622990000012347369639866495148_);" d="M700.36,135.055c-18-1-35-9-53-9
			c-34-1-66-12-100-14c-18.114-1.342-35.776-2.237-53.291-3.886l83.682,55.21L750,243.489V138.563
			C733.598,136.584,717.059,135.338,700.36,135.055z"/>
		<g>
			
				<linearGradient id="SVGID_00000028313033473917537610000015377230324923000502_" gradientUnits="userSpaceOnUse" x1="0" y1="357.2877" x2="394.7823" y2="357.2877">
				<stop  offset="0" style="stop-color:#360B36"/>
				<stop  offset="1" style="stop-color:#A54F2E"/>
			</linearGradient>
			<path style="fill:url(#SVGID_00000028313033473917537610000015377230324923000502_);" d="M0,385.776v51.595
				c4.466-1.69,8.944-3.406,13.44-5.122c30.365-11.343,187.932-70.891,218.297-82.234c6.601-1.891,12.542-5.671,19.143-6.616
				c48.412-9.299,94.184-21.641,139.677-39.695c2.309-2.763,3.88-6.405,4.225-11.347c-35.348-2.761-72.571,7.009-105.581-15.154
				c-10.861,4.743-22.199,8.207-34.361,11.373C211.19,301.362,41.5,372.045,0,385.776z"/>
			<g>
				
					<linearGradient id="SVGID_00000008871103732425831410000001226385542343924876_" gradientUnits="userSpaceOnUse" x1="597.3328" y1="545.1022" x2="436.2159" y2="310.4933">
					<stop  offset="0" style="stop-color:#D47B3A"/>
					<stop  offset="1" style="stop-color:#FFA869"/>
				</linearGradient>
				<path style="fill:url(#SVGID_00000008871103732425831410000001226385542343924876_);" d="M493.798,322.605
					c-27.064-18.904-56.109-20.795-85.813-31.192c-4.75-1.57-9.095-0.528-13.26,1.513c-13.982,9.152-20.514,18.376-30.967,22.118
					c-37.356,15.283-77.65,20.792-112.589,42.46c-4.176,2.59-8.297,5.404-11.486,9.142c-3.189,3.738-5.391,8.534-5.135,13.441
					c0.081,1.547,0.434,3.147,1.422,4.34c0.812,0.98,1.972,1.595,3.116,2.152c14.906,7.258,31.885,8.838,48.454,9.436
					c61.668,2.226,123.559-6.102,184.633-13.596c13.545-1.662,27.088-3.415,40.669-4.767c4.169-0.415,8.363-0.867,12.554-0.987
					c1.417-0.04,5,0.78,6.206,0.33c2.905-1.084-3.183-0.304,0,0c29.424,4.514,192.185,74.667,218.4,91.467v-66.607
					c-14.372-4.449-156.043-37.647-171.049-41.439C549.246,352.852,521.522,340.564,493.798,322.605z"/>
				
					<linearGradient id="SVGID_00000149374668669227194050000001525829130896227495_" gradientUnits="userSpaceOnUse" x1="620.4425" y1="461.4011" x2="452.338" y2="216.6172">
					<stop  offset="0" style="stop-color:#D47B3A"/>
					<stop  offset="1" style="stop-color:#FFA869"/>
				</linearGradient>
				<path style="fill:url(#SVGID_00000149374668669227194050000001525829130896227495_);" d="M434.388,241.316
					c-13.202-4.726-25.744-8.507-39.606-12.288c-16.424-4.523-31.037-10.782-46.148-18.767c1.729,3.823-6.062,11.228-11.281,13.096
					c-19.143,8.507-43.567,8.507-55.449,34.973c-2.64,5.671,0.66,14.178,4.621,17.014c33.665,24.576,71.951,14.178,108.257,17.014
					c-0.014,0.195-0.04,0.376-0.058,0.567c4.165-2.04,8.51-3.082,13.26-1.513c29.705,10.397,58.749,12.288,85.813,31.192
					c27.724,17.959,55.449,30.247,85.153,37.809c15.006,3.792,156.676,36.99,171.049,41.439v-52.951
					c-5.59-1.334-138.286-59.26-143.985-60.324C546.606,278.18,491.817,263.056,434.388,241.316z"/>
				
					<linearGradient id="SVGID_00000140706518401977718680000011788590465440704391_" gradientUnits="userSpaceOnUse" x1="669.8892" y1="374.1042" x2="499.5668" y2="126.0907">
					<stop  offset="0" style="stop-color:#D47B3A"/>
					<stop  offset="1" style="stop-color:#FFA869"/>
				</linearGradient>
				<path style="fill:url(#SVGID_00000140706518401977718680000011788590465440704391_);" d="M446.27,91.027
					c-0.974-0.31-1.931-0.336-2.876-0.162c1.1,1.629,2.321,3.176,4.196,3.943c5.941,2.836,10.562,18.904,7.921,19.85
					c-42.907,26.466-87.134,39.699-134.001,50.096c-7.921,1.89-12.542,9.452-5.941,17.959c9.241,14.178,25.084,12.288,33.005,27.411
					c0.023,0.044,0.038,0.092,0.059,0.137c15.111,7.985,29.724,14.244,46.148,18.767c13.862,3.781,26.404,7.562,39.606,12.288
					c57.429,21.74,112.218,36.863,171.627,47.261c5.698,1.064,138.395,58.99,143.985,60.324V166.149
					C746.319,165.292,452.211,93.863,446.27,91.027z"/>
			</g>
			
				<linearGradient id="SVGID_00000065757572934268174930000014148863175112024458_" gradientUnits="userSpaceOnUse" x1="-17.0808" y1="463.9042" x2="349.1342" y2="463.9042">
				<stop  offset="0" style="stop-color:#360B36"/>
				<stop  offset="1" style="stop-color:#A54F2E"/>
			</linearGradient>
			<path style="fill:url(#SVGID_00000065757572934268174930000014148863175112024458_);" d="M99.675,500
				c34.267-14.694,73.014-17.485,79.938-18.883c13.903-2.699,26.747-0.562,40.326-1.532c8.717-2.809,43.383-11.978,52.082-15.681
				c5.408-2.277,71.912-33.128,77.087-36.056c3.027-1.713-242.224,51.906-308.772,72.151H99.675z"/>
			
				<linearGradient id="SVGID_00000084516022206306925630000014408875306117550765_" gradientUnits="userSpaceOnUse" x1="360.9758" y1="370.6716" x2="-215.1983" y2="526.9739">
				<stop  offset="0" style="stop-color:#240724"/>
				<stop  offset="1" style="stop-color:#360B36"/>
			</linearGradient>
			<path style="fill:url(#SVGID_00000084516022206306925630000014408875306117550765_);" d="M40.336,500
				c66.548-20.246,300.621-70.248,297.594-68.535c-5.175,2.928-170.533,43.269-179.25,46.078
				c24.458-1.746,103.463-14.033,128.505-20.718c32.345-8.507,61.39-17.959,93.735-21.74c21.123-2.836,40.926-9.452,62.05-14.178
				c8.581-1.89,89.774-32.137,89.114-43.48c-0.372-2.13-12.802-0.374-14.066-0.265c-12.041,1.038-24.042,2.585-36.036,4.051
				c-16.807,2.055-33.611,4.139-50.434,6.063c-19.059,2.179-38.142,4.174-57.259,5.77c-18.801,1.57-37.646,2.784-56.512,3.173
				c-16.057,0.331-32.227,0.177-48.193-1.729c-10.764-1.285-23.247-2.991-32.531-9.081c-5.965-3.913-0.727-15.339,2.941-19.492
				c4.291-4.858,9.895-8.151,15.508-11.175c36.403-19.616,71.291-24.576,108.257-39.699c7.801-2.792,16.571-8.986,31.025-22.685
				c-21.123,0-47.229,10.298-64.36,15.572c-28.897,8.897-49.148,29.631-79.543,35.469c-6.601,0.945-12.542,4.726-19.143,6.616
				C201.372,361.358,43.805,420.907,13.44,432.25c-4.496,1.717-8.973,3.432-13.44,5.122V500H40.336z"/>
			
				<linearGradient id="SVGID_00000158706952191900139780000006759560725826799772_" gradientUnits="userSpaceOnUse" x1="0" y1="275.4704" x2="394.7822" y2="275.4704">
				<stop  offset="0" style="stop-color:#240724"/>
				<stop  offset="1" style="stop-color:#360B36"/>
			</linearGradient>
			<path style="fill:url(#SVGID_00000158706952191900139780000006759560725826799772_);" d="M155.165,222.412
				C145.863,226.329,9.147,287.603,0,291.743v94.034c41.5-13.731,383.922-88.676,394.782-93.419
				c-1.143-0.76-4.006-0.543-5.309-0.694c-4.436-0.512-8.876-0.992-13.315-1.488c-26.32-2.94-52.754-5.488-78.672-11.113
				c-5.168-1.122-10.758-2.653-13.849-6.944c-2.791-3.874-2.816-9.17-1.471-13.752c3.391-11.549,14.146-19.436,25.202-24.195
				c11.055-4.759,23.039-7.298,33.688-12.909c3.812-2.008,7.876-5.231,7.616-9.532c-0.11-1.813-1.011-3.486-2.079-4.955
				c-7.938-10.913-25.215-12.079-31.256-24.6c-2.816-5.836,1.574-12.191,4.833-17.012
				C316.784,165.661,172.327,214.85,155.165,222.412z"/>
			
				<linearGradient id="SVGID_00000091011803383371798200000013724333174173543354_" gradientUnits="userSpaceOnUse" x1="0" y1="220.0544" x2="382.3255" y2="220.0544">
				<stop  offset="0" style="stop-color:#360B36"/>
				<stop  offset="1" style="stop-color:#A54F2E"/>
			</linearGradient>
			<path style="fill:url(#SVGID_00000091011803383371798200000013724333174173543354_);" d="M289.826,161.918
				C235.18,182.659,53.984,242.248,0,251.641v40.101c9.147-4.14,145.863-65.413,155.165-69.331
				c17.163-7.562,163.099-56.883,166.346-57.658c1.894-0.42,3.781-0.847,5.667-1.277c2.103-1.153,4.178-2.327,6.215-3.449
				c-2.037,1.122-4.113,2.297-6.215,3.449c18.773-4.283,37.126-9.097,55.148-15.111c-7.247,1.626-14.428,3.623-21.869,5.99
				C336.033,161.918,312.93,153.411,289.826,161.918z"/>
			
				<linearGradient id="SVGID_00000035513604826389575800000004150782246019231642_" gradientUnits="userSpaceOnUse" x1="0" y1="171.2531" x2="456.2723" y2="171.2531">
				<stop  offset="0" style="stop-color:#240724"/>
				<stop  offset="1" style="stop-color:#360B36"/>
			</linearGradient>
			<path style="fill:url(#SVGID_00000035513604826389575800000004150782246019231642_);" d="M447.591,94.808
				c-1.875-0.767-3.096-2.314-4.196-3.943C438.58,91.753,19.887,181.372,0,186.817v64.824
				c53.984-9.393,235.18-68.983,289.826-89.723c23.104-8.507,46.207,0,70.631-7.562c7.44-2.367,14.622-4.364,21.869-5.99
				c24.957-8.328,49.278-18.961,73.186-33.709C458.152,113.712,453.531,97.643,447.591,94.808z"/>
		</g>
	</g>
	
		<linearGradient id="SVGID_00000017484429073028506150000007110548201792452496_" gradientUnits="userSpaceOnUse" x1="552.2059" y1="658.5351" x2="366.4859" y2="388.1006">
		<stop  offset="0" style="stop-color:#E98740"/>
		<stop  offset="1" style="stop-color:#FFA869"/>
	</linearGradient>
	<path style="fill:url(#SVGID_00000017484429073028506150000007110548201792452496_);" d="M750,500v-53.863
		c-38.97-8.765-188.976-64.631-218.4-69.145c-3.182-0.304,2.905-1.084,0,0c0.289,0.117,0.453,0.261,0.484,0.435
		c0.66,11.343-80.533,41.59-89.114,43.48c-21.123,4.726-40.926,11.343-62.05,14.178c-32.345,3.781-61.39,13.233-93.735,21.74
		c-38.946,10.397-68.627,16.73-107.573,24.292c-6.923,1.398-45.671,4.189-79.938,18.883H750z"/>
</g>
</svg>
