<?xml version="1.0" encoding="UTF-8" standalone="no"?>
<!DOCTYPE svg PUBLIC "-//W3C//DTD SVG 1.1//EN" "http://www.w3.org/Graphics/SVG/1.1/DTD/svg11.dtd">
<svg width="100%" height="100%" viewBox="0 0 800 800" version="1.1" xmlns="http://www.w3.org/2000/svg" xmlns:xlink="http://www.w3.org/1999/xlink" xml:space="preserve" xmlns:serif="http://www.serif.com/" style="fill-rule:evenodd;clip-rule:evenodd;stroke-linejoin:round;stroke-miterlimit:2;">
    <path d="M672.762,741.269C670.853,766.556 648.906,785.162 623.622,783.253C615.513,782.775 609.784,779.913 602.628,776.575C602.628,776.575 472.856,688.313 465.222,682.109C452.341,671.137 439.459,658.253 433.734,639.647C431.825,632.969 405.584,543.75 405.584,543.75L393.803,793.75L130.456,793.75L136.819,693.081L74.475,693.081C36.784,693.081 6.25,662.547 6.25,624.856C6.25,615.791 7.681,607.203 11.022,599.569C11.022,599.569 81.634,441.172 94.994,415.406C114.556,376.759 148.906,360.063 197.094,361.494L324.481,361.494L57.778,552.813L33.922,608.634C31.538,613.406 30.581,619.131 30.581,624.856C30.581,648.713 50.144,668.272 73.997,668.272L295.85,668.272C333.541,668.272 364.075,637.738 364.075,600.047C364.075,566.65 340.219,538.5 308.731,532.775L373.616,360.541L388.884,360.541C424.666,360.541 452.816,384.872 460.928,412.544L511.978,596.706C512.931,599.569 516.272,605.294 520.566,608.634C525.812,612.45 655.109,701.194 655.109,701.194C667.038,710.256 674.194,725.047 672.762,741.269ZM281.063,330.006C336.884,334.3 385.547,292.794 389.841,236.972C394.134,181.15 352.628,132.488 296.806,128.194C240.984,123.9 192.319,165.406 188.025,221.225C183.731,277.047 225.241,325.712 281.063,330.006ZM339.269,599.569C339.269,577.144 322.094,559.016 300.622,556.628L269.134,643.463L295.853,642.984C319.706,642.984 339.269,623.425 339.269,599.569ZM640.625,312.5C724.888,312.5 793.75,244.091 793.75,159.375C793.75,74.659 725.341,6.25 640.625,6.25C555.909,6.25 487.953,75.113 487.953,159.828C487.953,244.091 556.363,312.5 640.625,312.5ZM632.169,172.362C604.081,162.547 586.563,148.353 586.563,123.134C586.563,99.878 601.966,81.606 630.203,75.869L630.203,50.65L651.344,50.65L651.344,74.659C668.862,74.659 681.547,78.284 690.909,83.266L682.303,113.469C675.356,110.6 664.031,105.769 648.478,105.769C632.925,105.769 624.469,113.469 624.469,121.172C624.469,131.744 634.284,135.819 655.425,144.428C684.269,155 697.709,169.647 697.709,193.656C697.709,217.666 683.063,235.941 652.103,242.884L652.103,266.894L630.963,266.894L630.963,243.637C612.691,243.637 594.266,238.806 585.356,233.822L593.056,202.866C602.872,207.697 618.275,213.437 634.584,213.437C652.103,213.437 660.709,205.734 660.709,195.166C660.709,184.597 652.403,180.216 632.169,172.362Z" style="fill:rgb(84,150,112);fill-rule:nonzero;"/>
</svg>
