<?xml version="1.0" encoding="UTF-8" standalone="no"?>
<!DOCTYPE svg PUBLIC "-//W3C//DTD SVG 1.1//EN" "http://www.w3.org/Graphics/SVG/1.1/DTD/svg11.dtd">
<svg width="100%" height="100%" viewBox="0 0 512 512" version="1.1" xmlns="http://www.w3.org/2000/svg" xmlns:xlink="http://www.w3.org/1999/xlink" xml:space="preserve" xmlns:serif="http://www.serif.com/" style="fill-rule:evenodd;clip-rule:evenodd;stroke-linejoin:round;stroke-miterlimit:2;">
    <path d="M156.747,488.732C146.899,488.732 132.523,483.909 100.587,448.169C84.356,430.004 71.054,412.134 70.496,411.382C70.12,410.875 69.779,410.346 69.473,409.795C63.4,398.863 60.19,386.474 60.19,373.968L60.19,283.076C60.19,275.151 66.614,268.726 74.54,268.726L190.615,268.726C207.239,268.726 222.92,275.147 234.77,286.808L294.203,345.293C302.586,353.675 307.158,364.712 307.158,376.452C307.158,388.192 302.586,399.229 294.285,407.53C277.051,424.761 249.17,424.761 232.032,407.625L172.662,348.253C166.764,348.209 157.182,348.164 149.528,348.13L138.708,348.078C130.783,348.036 124.391,341.579 124.433,333.654C124.475,325.755 130.89,319.379 138.781,319.379L138.857,319.379L149.659,319.431C156.449,319.461 163.714,319.496 169.291,319.53C172.105,319.549 174.493,319.566 176.182,319.586C180.359,319.633 184.677,319.681 188.841,323.845L252.327,387.331C258.273,393.279 267.951,393.279 273.896,387.331C276.872,384.355 278.459,380.525 278.459,376.451C278.459,372.377 276.873,368.547 273.992,365.667L214.639,307.264C208.192,300.92 199.659,297.426 190.613,297.426L88.889,297.426L88.889,373.968C88.889,381.305 90.697,388.576 94.125,395.056C96.74,398.524 107.71,412.914 120.594,427.479C146.07,456.276 155.805,459.687 157.098,460.033L312.247,460.003C322.823,460.003 335.149,454.465 346.868,448.793C356.761,444.007 430.202,394.191 474.171,363.916C474.411,363.751 474.656,363.593 474.906,363.442C483.105,358.503 485.759,347.811 480.821,339.609C478.429,335.637 474.632,332.835 470.131,331.717C465.714,330.621 461.141,331.275 457.219,333.559L350.035,404.641C343.43,409.02 334.525,407.217 330.145,400.613C325.766,394.008 327.569,385.104 334.173,380.723L441.656,309.443C441.83,309.328 442.005,309.216 442.184,309.11C463.944,296.006 492.303,303.047 505.407,324.804C518.426,346.426 511.554,374.57 490.12,387.779C476.825,396.931 374.352,467.376 359.371,474.626C344.655,481.748 328.895,488.702 312.25,488.702L156.756,488.732L156.747,488.732Z" style="fill:rgb(84,150,112);fill-rule:nonzero;"/>
    <rect x="14.35" y="265.452" width="84.146" height="189.587" style="fill:rgb(233,243,237);"/>
    <g>
        <path d="M98.49,469.381L14.35,469.381C6.425,469.381 0,462.957 0,455.031L0,265.45C0,257.525 6.424,251.1 14.35,251.1L98.49,251.1C106.415,251.1 112.84,257.524 112.84,265.45L112.84,455.031C112.84,462.956 106.415,469.381 98.49,469.381ZM28.699,440.681L84.14,440.681L84.14,279.799L28.699,279.799L28.699,440.681Z" style="fill:rgb(84,150,112);fill-rule:nonzero;"/>
        <path d="M273.037,237.471C213.981,237.471 165.934,189.426 165.934,130.368C165.934,71.31 213.98,23.265 273.037,23.265C332.094,23.265 380.14,71.311 380.14,130.368C380.14,189.425 332.093,237.471 273.037,237.471ZM273.037,51.966C229.806,51.966 194.634,87.137 194.634,130.369C194.634,173.601 229.805,208.772 273.037,208.772C316.269,208.772 351.44,173.601 351.44,130.369C351.44,87.137 316.268,51.966 273.037,51.966Z" style="fill:rgb(84,150,112);fill-rule:nonzero;"/>
    </g>
    <circle cx="348.925" cy="201.869" r="92.756" style="fill:rgb(233,243,237);"/>
    <g>
        <path d="M348.932,308.969C289.876,308.969 241.829,260.924 241.829,201.866C241.829,142.808 289.875,94.764 348.932,94.764C407.989,94.764 456.035,142.809 456.035,201.867C456.035,260.925 407.988,308.969 348.932,308.969ZM348.932,123.463C305.701,123.463 270.529,158.634 270.529,201.866C270.529,245.098 305.7,280.269 348.932,280.269C392.164,280.269 427.335,245.098 427.335,201.866C427.335,158.634 392.164,123.463 348.932,123.463Z" style="fill:rgb(84,150,112);fill-rule:nonzero;"/>
        <path d="M345.377,248.147C329.864,247.63 317.196,239.615 317.196,231.342C317.196,226.947 321.075,220.484 325.987,220.484C331.417,220.484 335.812,228.111 345.378,229.791L345.378,208.849C333.485,204.325 319.523,198.766 319.523,182.219C319.523,165.802 331.674,157.915 345.378,155.976L345.378,152.357C345.378,150.548 347.446,148.867 350.29,148.867C352.745,148.867 355.202,150.547 355.202,152.357L355.202,155.589C363.216,155.847 378.342,157.916 378.342,166.835C378.342,170.326 376.014,177.437 370.326,177.437C366.06,177.437 363.603,173.3 355.201,172.654L355.201,191.528C366.965,195.923 380.667,201.999 380.667,219.451C380.667,235.481 370.325,245.177 355.201,247.632L355.201,251.382C355.201,253.191 352.744,254.872 350.289,254.872C347.445,254.872 345.377,253.192 345.377,251.382L345.377,248.147ZM346.669,188.422L346.669,173.038C340.852,174.202 338.395,177.175 338.395,180.277C338.397,184.027 341.758,186.354 346.669,188.422ZM353.909,212.337L353.909,229.66C358.304,228.625 361.796,226.169 361.796,221.515C361.795,217.251 358.562,214.536 353.909,212.337Z" style="fill:rgb(84,150,112);fill-rule:nonzero;"/>
    </g>
</svg>
