<?xml version="1.0" encoding="UTF-8" standalone="no"?>
<!DOCTYPE svg PUBLIC "-//W3C//DTD SVG 1.1//EN" "http://www.w3.org/Graphics/SVG/1.1/DTD/svg11.dtd">
<svg width="100%" height="100%" viewBox="0 0 800 800" version="1.1" xmlns="http://www.w3.org/2000/svg" xmlns:xlink="http://www.w3.org/1999/xlink" xml:space="preserve" xmlns:serif="http://www.serif.com/" style="fill-rule:evenodd;clip-rule:evenodd;stroke-linejoin:round;stroke-miterlimit:2;">
    <path d="M266.667,266.667L266.667,133.333C266.667,96.514 296.514,66.667 333.333,66.667L466.667,66.667C503.486,66.667 533.333,96.514 533.333,133.333L533.333,266.667L666.667,266.667C703.486,266.667 733.333,296.514 733.333,333.333L733.333,466.667C733.333,503.486 703.486,533.333 666.667,533.333L533.333,533.333L533.333,666.667C533.333,703.486 503.486,733.333 466.667,733.333L333.333,733.333C296.514,733.333 266.667,703.486 266.667,666.667L266.667,533.333L133.333,533.333C96.514,533.333 66.667,503.486 66.667,466.667L66.667,333.333C66.667,296.514 96.514,266.667 133.333,266.667L266.667,266.667ZM333.333,133.333L333.333,300C333.333,318.409 318.409,333.333 300,333.333L133.333,333.333L133.333,466.667L300,466.667C318.409,466.667 333.333,481.591 333.333,500L333.333,666.667L466.667,666.667L466.667,500C466.667,481.591 481.591,466.667 500,466.667L666.667,466.667L666.667,333.333L500,333.333C481.591,333.333 466.667,318.409 466.667,300L466.667,133.333L333.333,133.333Z" style="fill:rgb(84,150,112);"/>
</svg>
