<?xml version="1.0" encoding="UTF-8" standalone="no"?>
<!DOCTYPE svg PUBLIC "-//W3C//DTD SVG 1.1//EN" "http://www.w3.org/Graphics/SVG/1.1/DTD/svg11.dtd">
<svg width="100%" height="100%" viewBox="0 0 700 110" version="1.1" xmlns="http://www.w3.org/2000/svg" xmlns:xlink="http://www.w3.org/1999/xlink" xml:space="preserve" xmlns:serif="http://www.serif.com/" style="fill-rule:evenodd;clip-rule:evenodd;stroke-linejoin:round;stroke-miterlimit:2;">
    <g id="Logo" transform="matrix(1.4,0,0,0.22,0,0)">
        <rect x="0" y="0" width="500" height="500" style="fill:none;"/>
        <clipPath id="_clip1">
            <rect x="0" y="0" width="500" height="500"/>
        </clipPath>
        <g clip-path="url(#_clip1)">
            <g id="secure-legacy" transform="matrix(1.37918,0,0,2.5076,-71.2899,-376.899)">
                <g id="legacy" transform="matrix(0.991216,0,0,3.46926,236.01,-710.171)">
                    <rect x="57.559" y="264.2" width="4.954" height="31.527" style="fill:rgb(125,133,141);fill-rule:nonzero;"/>
                    <path d="M77.781,276.991C76.791,276.991 75.867,277.178 75.012,277.554C74.156,277.929 73.398,278.447 72.737,279.107C72.077,279.768 71.559,280.526 71.183,281.382C70.808,282.238 70.62,283.161 70.62,284.152C70.62,285.143 70.808,286.073 71.183,286.944C71.559,287.815 72.077,288.573 72.737,289.219C73.398,289.864 74.156,290.375 75.012,290.75C75.867,291.125 76.791,291.313 77.781,291.313C78.802,291.313 79.756,291.118 80.641,290.727C81.527,290.337 82.3,289.797 82.961,289.106L86.564,292.484C85.453,293.655 84.139,294.578 82.623,295.254C81.107,295.929 79.493,296.267 77.781,296.267C76.1,296.267 74.531,295.952 73.075,295.321C71.619,294.691 70.335,293.827 69.224,292.732C68.113,291.636 67.242,290.352 66.612,288.881C65.981,287.41 65.666,285.833 65.666,284.152C65.666,282.5 65.981,280.939 66.612,279.468C67.242,277.996 68.113,276.705 69.224,275.594C70.335,274.483 71.619,273.613 73.075,272.982C74.531,272.352 76.1,272.036 77.781,272.036C78.712,272.036 79.658,272.141 80.619,272.352C81.58,272.562 82.51,272.892 83.411,273.343C84.312,273.793 85.168,274.386 85.978,275.122C86.789,275.857 87.51,276.765 88.14,277.846L77.016,289.106L73.368,285.683L81.159,277.846C79.958,277.276 78.832,276.991 77.781,276.991Z" style="fill:rgb(125,133,141);fill-rule:nonzero;"/>
                    <path d="M100.931,291.358C101.592,291.358 102.222,291.275 102.823,291.11C103.423,290.945 103.994,290.712 104.534,290.412L107.327,294.511C105.375,295.712 103.243,296.312 100.931,296.312C99.25,296.312 97.681,295.997 96.225,295.366C94.768,294.736 93.485,293.873 92.374,292.777C91.263,291.681 90.392,290.397 89.762,288.926C89.131,287.455 88.816,285.878 88.816,284.197C88.816,282.545 89.131,280.984 89.762,279.513C90.392,278.042 91.263,276.75 92.374,275.639C93.485,274.529 94.768,273.658 96.225,273.027C97.681,272.397 99.25,272.081 100.931,272.081C102.583,272.081 104.144,272.397 105.615,273.027C107.086,273.658 108.378,274.529 109.488,275.639C110.599,276.75 111.47,278.042 112.101,279.513C112.731,280.984 113.047,282.545 113.047,284.197L113.047,296.402C113.047,297.633 112.821,298.782 112.371,299.848C111.921,300.914 111.298,301.837 110.502,302.618C109.706,303.398 108.775,304.021 107.709,304.487C106.644,304.952 105.51,305.185 104.309,305.185C103.078,305.185 101.937,304.952 100.886,304.487C99.835,304.021 98.919,303.383 98.139,302.572L101.742,299.15C102.402,299.87 103.258,300.23 104.309,300.23C105.36,300.23 106.253,299.855 106.989,299.105C107.724,298.354 108.092,297.453 108.092,296.402L108.092,284.197C108.092,283.206 107.905,282.283 107.529,281.427C107.154,280.571 106.636,279.813 105.975,279.152C105.315,278.492 104.557,277.974 103.701,277.599C102.845,277.223 101.922,277.036 100.931,277.036C99.94,277.036 99.017,277.223 98.161,277.599C97.306,277.974 96.547,278.492 95.887,279.152C95.226,279.813 94.708,280.571 94.333,281.427C93.958,282.283 93.77,283.206 93.77,284.197C93.77,285.188 93.958,286.118 94.333,286.989C94.708,287.86 95.226,288.618 95.887,289.264C96.547,289.909 97.306,290.42 98.161,290.795C99.017,291.17 99.94,291.358 100.931,291.358Z" style="fill:rgb(125,133,141);fill-rule:nonzero;"/>
                    <path d="M134.034,294.466C132.083,295.667 129.951,296.267 127.639,296.267C125.958,296.267 124.389,295.952 122.932,295.321C121.476,294.691 120.193,293.827 119.082,292.732C117.971,291.636 117.1,290.352 116.469,288.881C115.839,287.41 115.524,285.833 115.524,284.152C115.524,282.5 115.839,280.939 116.469,279.468C117.1,277.996 117.971,276.705 119.082,275.594C120.193,274.483 121.476,273.613 122.932,272.982C124.389,272.352 125.958,272.036 127.639,272.036C129.29,272.036 130.852,272.352 132.323,272.982C133.794,273.613 135.085,274.483 136.196,275.594C137.307,276.705 138.178,277.996 138.809,279.468C139.439,280.939 139.754,282.5 139.754,284.152L139.754,295.727L134.8,295.727L134.8,284.152C134.8,283.161 134.612,282.238 134.237,281.382C133.862,280.526 133.344,279.768 132.683,279.107C132.023,278.447 131.265,277.929 130.409,277.554C129.553,277.178 128.63,276.991 127.639,276.991C126.648,276.991 125.725,277.178 124.869,277.554C124.013,277.929 123.255,278.447 122.595,279.107C121.934,279.768 121.416,280.526 121.041,281.382C120.666,282.238 120.478,283.161 120.478,284.152C120.478,285.143 120.666,286.073 121.041,286.944C121.416,287.815 121.934,288.573 122.595,289.219C123.255,289.864 124.013,290.375 124.869,290.75C125.725,291.125 126.648,291.313 127.639,291.313C128.3,291.313 128.93,291.23 129.531,291.065C130.131,290.9 130.702,290.667 131.242,290.367L134.034,294.466Z" style="fill:rgb(125,133,141);fill-rule:nonzero;"/>
                    <path d="M154.347,276.991C153.356,276.991 152.433,277.178 151.577,277.554C150.721,277.929 149.963,278.439 149.302,279.085C148.642,279.73 148.124,280.489 147.749,281.359C147.373,282.23 147.186,283.161 147.186,284.152C147.186,285.143 147.373,286.073 147.749,286.944C148.124,287.815 148.642,288.573 149.302,289.219C149.963,289.864 150.721,290.375 151.577,290.75C152.433,291.125 153.356,291.313 154.347,291.313L154.347,296.267C152.665,296.267 151.097,295.952 149.64,295.321C148.184,294.691 146.9,293.827 145.789,292.732C144.679,291.636 143.808,290.352 143.177,288.881C142.547,287.41 142.231,285.833 142.231,284.152C142.231,282.47 142.547,280.894 143.177,279.423C143.808,277.951 144.679,276.668 145.789,275.572C146.9,274.476 148.184,273.613 149.64,272.982C151.097,272.352 152.665,272.036 154.347,272.036L154.347,276.991Z" style="fill:rgb(125,133,141);fill-rule:nonzero;"/>
                    <path d="M174.839,304.644L174.839,294.105C173.878,294.766 172.843,295.276 171.732,295.637C170.621,295.997 169.45,296.177 168.219,296.177C166.627,296.177 165.126,295.869 163.715,295.254C162.304,294.638 161.073,293.805 160.022,292.754C158.971,291.703 158.138,290.472 157.522,289.061C156.906,287.65 156.599,286.148 156.599,284.557L156.599,272.487L161.553,272.487L161.553,284.557C161.553,285.458 161.726,286.314 162.071,287.124C162.416,287.935 162.897,288.648 163.512,289.264C164.128,289.879 164.841,290.36 165.651,290.705C166.462,291.05 167.318,291.223 168.219,291.223C169.119,291.223 169.968,291.058 170.763,290.727C171.559,290.397 172.257,289.939 172.858,289.354C173.458,288.768 173.939,288.093 174.299,287.327C174.659,286.561 174.839,285.728 174.839,284.827L174.839,272.487L179.794,272.487L179.794,304.644L174.839,304.644Z" style="fill:rgb(125,133,141);fill-rule:nonzero;"/>
                </g>
                <g id="secure" transform="matrix(0.991216,0,0,3.46926,-4.917,-710.171)">
                    <path d="M66.297,274.649C64.915,274.288 63.669,273.718 62.558,272.937C61.447,272.156 60.487,271.226 59.676,270.145C58.865,269.064 58.235,267.848 57.784,266.497C57.334,265.146 57.109,263.749 57.109,262.308C57.109,260.507 57.454,258.81 58.145,257.219C58.835,255.627 59.781,254.246 60.982,253.075C62.183,251.904 63.564,250.973 65.126,250.283C66.687,249.592 68.368,249.247 70.17,249.247L95.662,249.247L95.662,259.155L69.9,259.155C69.059,259.275 68.368,259.636 67.828,260.236C67.287,260.837 67.017,261.527 67.017,262.308C67.017,262.969 67.212,263.569 67.603,264.11C67.993,264.65 68.488,264.98 69.089,265.1L88.095,269.965C89.596,270.265 91.008,270.79 92.329,271.541C93.65,272.292 94.791,273.237 95.752,274.378C96.713,275.519 97.478,276.81 98.049,278.252C98.619,279.693 98.904,281.224 98.904,282.846C98.904,284.647 98.559,286.329 97.869,287.89C97.178,289.451 96.247,290.817 95.076,291.988C93.905,293.159 92.539,294.075 90.978,294.736C89.416,295.396 87.765,295.727 86.023,295.727L60.081,295.727L60.081,285.818L86.384,285.818C87.104,285.698 87.72,285.368 88.23,284.827C88.741,284.287 88.996,283.626 88.996,282.846C88.996,282.065 88.756,281.389 88.275,280.819C87.795,280.248 87.224,279.903 86.564,279.783L66.297,274.649Z" style="fill:rgb(0,158,112);fill-rule:nonzero;"/>
                    <path d="M126.738,258.255C124.757,258.255 122.91,258.63 121.198,259.381C119.487,260.131 117.971,261.167 116.65,262.488C115.328,263.809 114.293,265.326 113.542,267.037C112.791,268.749 112.416,270.595 112.416,272.577C112.416,274.559 112.791,276.42 113.542,278.162C114.293,279.903 115.328,281.419 116.65,282.711C117.971,284.002 119.487,285.022 121.198,285.773C122.91,286.524 124.757,286.899 126.738,286.899C128.78,286.899 130.687,286.509 132.458,285.728C134.23,284.947 135.776,283.866 137.097,282.485L144.303,289.241C142.081,291.583 139.454,293.43 136.421,294.781C133.389,296.132 130.161,296.808 126.738,296.808C123.375,296.808 120.238,296.177 117.325,294.916C114.413,293.655 111.845,291.928 109.624,289.737C107.402,287.545 105.66,284.977 104.399,282.035C103.138,279.092 102.508,275.94 102.508,272.577C102.508,269.274 103.138,266.151 104.399,263.209C105.66,260.266 107.402,257.684 109.624,255.462C111.845,253.24 114.413,251.499 117.325,250.238C120.238,248.977 123.375,248.346 126.738,248.346C128.6,248.346 130.491,248.556 132.413,248.977C134.335,249.397 136.196,250.058 137.998,250.958C139.799,251.859 141.511,253.045 143.132,254.516C144.754,255.988 146.195,257.804 147.456,259.966L125.207,282.485L117.911,275.639L133.494,259.966C131.092,258.825 128.84,258.255 126.738,258.255Z" style="fill:rgb(0,158,112);fill-rule:nonzero;"/>
                    <path d="M173.038,258.255C171.056,258.255 169.209,258.63 167.498,259.381C165.787,260.131 164.27,261.152 162.949,262.443C161.628,263.734 160.592,265.251 159.841,266.992C159.091,268.734 158.716,270.595 158.716,272.577C158.716,274.559 159.091,276.42 159.841,278.162C160.592,279.903 161.628,281.419 162.949,282.711C164.27,284.002 165.787,285.022 167.498,285.773C169.209,286.524 171.056,286.899 173.038,286.899L173.038,296.808C169.675,296.808 166.537,296.177 163.625,294.916C160.712,293.655 158.145,291.928 155.923,289.737C153.701,287.545 151.96,284.977 150.699,282.035C149.438,279.092 148.807,275.94 148.807,272.577C148.807,269.214 149.438,266.061 150.699,263.119C151.96,260.176 153.701,257.609 155.923,255.417C158.145,253.225 160.712,251.499 163.625,250.238C166.537,248.977 169.675,248.346 173.038,248.346L173.038,258.255Z" style="fill:rgb(0,158,112);fill-rule:nonzero;"/>
                    <path d="M177.542,249.247L187.45,249.247L187.45,273.388C187.45,275.189 187.795,276.901 188.486,278.522C189.177,280.143 190.122,281.57 191.323,282.801C192.524,284.032 193.936,284.992 195.557,285.683C197.178,286.374 198.89,286.719 200.691,286.719C202.493,286.719 204.204,286.374 205.826,285.683C207.447,284.992 208.873,284.032 210.104,282.801C211.335,281.57 212.296,280.143 212.987,278.522C213.677,276.901 214.023,275.189 214.023,273.388L214.023,249.247L223.931,249.247L223.931,273.388C223.931,276.57 223.316,279.573 222.085,282.395C220.854,285.218 219.187,287.68 217.085,289.782C214.984,291.883 212.521,293.55 209.699,294.781C206.877,296.012 203.874,296.627 200.691,296.627C197.509,296.627 194.506,296.012 191.684,294.781C188.861,293.55 186.399,291.883 184.297,289.782C182.196,287.68 180.544,285.218 179.343,282.395C178.142,279.573 177.542,276.57 177.542,273.388L177.542,249.247Z" style="fill:rgb(0,158,112);fill-rule:nonzero;"/>
                    <path d="M231.137,295.727L231.137,265.911C231.137,263.509 231.588,261.227 232.489,259.065C233.389,256.903 234.635,255.042 236.227,253.481C237.818,251.919 239.665,250.673 241.766,249.742C243.868,248.812 246.15,248.346 248.612,248.346L248.612,258.255C246.51,258.255 244.724,259.005 243.253,260.507C241.781,262.008 241.046,263.809 241.046,265.911L241.046,295.727L231.137,295.727Z" style="fill:rgb(0,158,112);fill-rule:nonzero;"/>
                    <path d="M275.095,258.255C273.113,258.255 271.267,258.63 269.555,259.381C267.844,260.131 266.327,261.167 265.006,262.488C263.685,263.809 262.649,265.326 261.899,267.037C261.148,268.749 260.773,270.595 260.773,272.577C260.773,274.559 261.148,276.42 261.899,278.162C262.649,279.903 263.685,281.419 265.006,282.711C266.327,284.002 267.844,285.022 269.555,285.773C271.267,286.524 273.113,286.899 275.095,286.899C277.137,286.899 279.043,286.509 280.815,285.728C282.586,284.947 284.133,283.866 285.454,282.485L292.66,289.241C290.438,291.583 287.811,293.43 284.778,294.781C281.746,296.132 278.518,296.808 275.095,296.808C271.732,296.808 268.594,296.177 265.682,294.916C262.769,293.655 260.202,291.928 257.98,289.737C255.758,287.545 254.017,284.977 252.756,282.035C251.495,279.092 250.864,275.94 250.864,272.577C250.864,269.274 251.495,266.151 252.756,263.209C254.017,260.266 255.758,257.684 257.98,255.462C260.202,253.24 262.769,251.499 265.682,250.238C268.594,248.977 271.732,248.346 275.095,248.346C276.956,248.346 278.848,248.556 280.77,248.977C282.691,249.397 284.553,250.058 286.354,250.958C288.156,251.859 289.867,253.045 291.489,254.516C293.11,255.988 294.551,257.804 295.813,259.966L273.564,282.485L266.267,275.639L281.851,259.966C279.449,258.825 277.197,258.255 275.095,258.255Z" style="fill:rgb(0,158,112);fill-rule:nonzero;"/>
                </g>
            </g>
        </g>
    </g>
</svg>
